<?xml version="1.0" encoding="UTF-8"?>
<svg width="77mm" height="34mm" version="1.1" viewBox="0 0 77 34" xmlns="http://www.w3.org/2000/svg">
 <defs>
  <clipPath id="clipPath4029">
   <rect x="39.302" y="-23.741" width="24.557" height="19.782" rx="2.6299" ry="1.8609" d="m 41.931442,-23.740818 h 19.297045 c 1.456953,0 2.629879,0.82995 2.629879,1.860875 v 16.0598762 c 0,1.0309245 -1.172926,1.8608745 -2.629879,1.8608745 H 41.931442 c -1.456953,0 -2.629879,-0.82995 -2.629879,-1.8608745 V -21.879943 c 0,-1.030925 1.172926,-1.860875 2.629879,-1.860875 z" display="none" fill="none" stroke="#000" stroke-linecap="round" stroke-linejoin="round" stroke-width="2.2"/>
   <path class="powerclip" d="m30.57-32.337h36.757v31.982h-36.757zm11.362 8.5961c-1.457 0-2.6299 0.82995-2.6299 1.8609v16.06c0 1.0309 1.1729 1.8609 2.6299 1.8609h19.297c1.457 0 2.6299-0.82995 2.6299-1.8609v-16.06c0-1.0309-1.1729-1.8609-2.6299-1.8609z" fill="none" stroke="#000" stroke-linecap="round" stroke-linejoin="round" stroke-width="2.2"/>
  </clipPath>
  <clipPath id="clipath_lpe_path-effect4041">
   <rect x="39.302" y="-23.741" width="24.557" height="19.782" rx="2.6299" ry="1.8609" d="m 41.931442,-23.740818 h 19.297045 c 1.456953,0 2.629879,0.82995 2.629879,1.860875 v 16.0598762 c 0,1.0309245 -1.172926,1.8608745 -2.629879,1.8608745 H 41.931442 c -1.456953,0 -2.629879,-0.82995 -2.629879,-1.8608745 V -21.879943 c 0,-1.030925 1.172926,-1.860875 2.629879,-1.860875 z" display="none" fill="none" stroke="#000" stroke-linecap="round" stroke-linejoin="round" stroke-width="2.2"/>
   <path class="powerclip" d="m30.57-32.337h36.757v31.982h-36.757zm11.362 8.5961c-1.457 0-2.6299 0.82995-2.6299 1.8609v16.06c0 1.0309 1.1729 1.8609 2.6299 1.8609h19.297c1.457 0 2.6299-0.82995 2.6299-1.8609v-16.06c0-1.0309-1.1729-1.8609-2.6299-1.8609z" fill="none" stroke="#000" stroke-linecap="round" stroke-linejoin="round" stroke-width="2.2"/>
  </clipPath>
 </defs>
 <g>
  <path transform="matrix(.70175 0 0 .70175 -20.512 -14.331)" d="m51.011 31.181h-12.952c-3.1644 2e-3 -11.317 21.586-3.8145 32.241 0.88052 1.2504 2.0052 3.1858 3.3218 3.2471h13.446m0.0013-35.488h12.952c3.1644 2e-3 11.317 21.586 3.8145 32.241-0.88052 1.2504-2.0052 3.1858-3.3218 3.2471h-13.446" fill="none" stroke="#000" stroke-linecap="round" stroke-linejoin="round" stroke-width="3.5625"/>
  <path d="m9.495 7.1978a5.7906 5.7906 0 0 1 5.7906-5.7906 5.7906 5.7906 0 0 1 5.7906 5.7906" fill-opacity="0" stroke="#000" stroke-linecap="round" stroke-linejoin="round" stroke-width="2.5"/>
  <g fill="none" stroke-linecap="round">
   <g stroke="#000" stroke-width="2.5">
    <path d="m32.196 20.42h10.968"/>
    <path d="m38.786 17.222 4.3782 3.1974"/>
    <path d="m38.786 23.617 4.3782-3.1974"/>
   </g>
   <path x="51.233112" y="13.172423" width="24.556803" height="19.781626" rx="2.6298788" ry="1.8608745" d="m53.863 13.172h19.297c1.457 0 2.6299 0.82995 2.6299 1.8609v16.06c0 1.0309-1.1729 1.8609-2.6299 1.8609h-19.297c-1.457 0-2.6299-0.82995-2.6299-1.8609v-16.06c0-1.0309 1.1729-1.8609 2.6299-1.8609z" stroke="#000" stroke-linejoin="round" stroke-width="2.2"/>
  </g>
  <g stroke-linejoin="round">
   <circle cx="57.142" cy="18.772" r="1.6499" stroke="#000" stroke-linecap="round" stroke-width="2.1801"/>
   <path d="m54.958 32.532 6.3859-7.6922 4.0215 4.888 4.7451-9.245 5.2413 10.194-2.1363 1.9848z" fill="#000" stroke="#000" stroke-width="1.744"/>
   <path transform="translate(11.932 36.384)" x="36.669746" y="-26.236906" width="24.556803" height="19.781626" rx="2.6298788" ry="1.8608745" d="m39.3-26.237h19.297c1.457 0 2.6299 0.82995 2.6299 1.8609v16.06c0 1.0309-1.1729 1.8609-2.6299 1.8609h-19.297c-1.457 0-2.6299-0.82995-2.6299-1.8609v-16.06c0-1.0309 1.1729-1.8609 2.6299-1.8609z" clip-path="url(#clipPath4029)" fill="none" stroke="#000" stroke-linecap="round" stroke-width="2.2"/>
   <path transform="translate(9.373 33.58)" x="36.669746" y="-26.236906" width="24.556803" height="19.781626" rx="2.6298788" ry="1.8608745" d="m39.3-26.237h19.297c1.457 0 2.6299 0.82995 2.6299 1.8609v16.06c0 1.0309-1.1729 1.8609-2.6299 1.8609h-19.297c-1.457 0-2.6299-0.82995-2.6299-1.8609v-16.06c0-1.0309 1.1729-1.8609 2.6299-1.8609z" clip-path="url(#clipath_lpe_path-effect4041)" fill="none" stroke="#000" stroke-linecap="round" stroke-width="2.2"/>
  </g>
 </g>
</svg>
