<?xml version="1.0" encoding="UTF-8" standalone="no"?>

<svg
   width="141mm"
   height="141mm"
   viewBox="0 0 141 141"
   version="1.1"
   xmlns="http://www.w3.org/2000/svg"
   xmlns:svg="http://www.w3.org/2000/svg">
  <g
     id="g5"
     transform="translate(-1.4833135,-0.18067733)"
     style="fill:#000000">
    <path
       id="path846"
       style="fill:#000000;stroke:#000000;stroke-width:3.49999;stroke-linejoin:bevel;stroke-miterlimit:4;stroke-dasharray:none"
       d="M 63.91869,2.4832123 58.977906,22.415846 A 49.855754,49.855754 0 0 0 46.651527,27.493057 L 29.091877,16.909206 18.053791,27.947291 28.637641,45.506944 A 49.855754,49.855754 0 0 0 23.560432,57.833323 L 3.6283141,62.774107 v 15.6099 l 19.9321179,4.940266 a 49.855754,49.855754 0 0 0 5.077209,12.326895 l -10.583334,17.559652 11.03757,11.03757 17.55965,-10.58385 a 49.855754,49.855754 0 0 0 12.326379,5.07773 l 4.940784,19.93211 h 15.6099 l 4.940266,-19.93211 a 49.855754,49.855754 0 0 0 12.326382,-5.07773 l 17.560172,10.58385 11.03808,-11.03809 -10.58385,-17.559648 a 49.855754,49.855754 0 0 0 5.07721,-12.326379 l 19.93212,-4.940784 V 62.774107 l -19.8944,-4.931482 a 49.855754,49.855754 0 0 0 -5.1139,-12.337748 L 125.39297,27.947291 114.35541,16.909206 96.797304,27.492023 A 49.855754,49.855754 0 0 0 84.460072,22.378122 L 79.52859,2.4832123 Z M 71.723382,44.120466 A 26.458579,26.458579 0 0 1 98.182231,70.578799 26.458579,26.458579 0 0 1 71.723382,97.037648 26.458579,26.458579 0 0 1 45.265049,70.578799 26.458579,26.458579 0 0 1 71.723382,44.120466 Z" />
  </g>
</svg>
