<?xml version="1.0" encoding="UTF-8"?>

<svg width="80mm" height="71mm" version="1.1" viewBox="0 0 80 71" xmlns="http://www.w3.org/2000/svg">
 <g stroke="#FFF" stroke-linecap="round">
  <path transform="matrix(.70175 0 0 .70175 -20.512 -14.331)" d="m51.011 31.181h-12.952c-3.1644 2e-3 -11.317 21.586-3.8145 32.241 0.88052 1.2504 2.0052 3.1858 3.3218 3.2471h13.446m0.0013-35.488h12.952c3.1644 2e-3 11.317 21.586 3.8145 32.241-0.88052 1.2504-2.0052 3.1858-3.3218 3.2471h-13.446" fill="none" stroke-linejoin="round" stroke-width="3.5625"/>
  <path d="m9.495 7.1978a5.7906 5.7906 0 0 1 5.7906-5.7906 5.7906 5.7906 0 0 1 5.7906 5.7906" fill-opacity="0" stroke-linejoin="round" stroke-width="2.5"/>
  <g fill="none">
   <g stroke-width="2.5">
    <path d="m36.512 39.066h10.282"/>
    <path d="m42.415 35.868 4.3782 3.1974"/>
    <path d="m42.415 42.263 4.3782-3.1974"/>
   </g>
   <path transform="matrix(.70175 0 0 .70175 -20.512 22.946)" d="m51.011 31.181h-12.952c-3.1644 2e-3 -11.317 21.586-3.8145 32.241 0.88052 1.2504 2.0052 3.1858 3.3218 3.2471h13.446m0.0013-35.488h12.952c3.1644 2e-3 11.317 21.586 3.8145 32.241-0.88052 1.2504-2.0052 3.1858-3.3218 3.2471h-13.446" stroke-linejoin="round" stroke-width="3.5625"/>
  </g>
  <g stroke-linejoin="round">
   <path d="m9.495 44.475a5.7906 5.7906 0 0 1 5.7906-5.7906 5.7906 5.7906 0 0 1 5.7906 5.7906" fill-opacity="0" stroke-width="2.5"/>
   <path transform="matrix(.71977 0 0 .71977 27.485 3.7474)" d="m51.011 31.181h-12.952c-3.1644 2e-3 -11.317 21.586-3.8145 32.241 0.88052 1.2504 2.0052 3.1858 3.3218 3.2471h13.446m0.0013-35.488h12.952c3.1644 2e-3 11.317 21.586 3.8145 32.241-0.88052 1.2504-2.0052 3.1858-3.3218 3.2471h-13.446" fill="none" stroke-width="3.4733"/>
   <path d="m58.263 25.83a5.9393 5.9393 0 0 1 5.9393-5.9393 5.9393 5.9393 0 0 1 5.9393 5.9393" fill-opacity="0" stroke-width="2.5"/>
  </g>
  <path d="m30.738 33.292 5.7735 5.7735" fill="none" stroke-width="2.5"/>
  <path d="m30.738 44.839 5.7735-5.7735" fill="none" stroke-width="2.5"/>
 </g>
</svg>
