<?xml version="1.0" encoding="UTF-8"?>

<svg
    width="35.5mm"
    height="27.5mm"
    version="1.1"
    viewBox="0 0 35.5 27.5"
    xmlns="http://www.w3.org/2000/svg">

 <g stroke-linecap="round" stroke-linejoin="round">
  <path d="m28.499 12.278v8.6092c0 2.9445-2.3705 5.315-5.315 5.315h-16.567c-2.9445 0-5.315-2.3705-5.315-5.315v-14.274c0-2.9445 2.3705-5.315 5.315-5.315h14.187" fill-opacity="0" stroke="#000" stroke-width="2.5"/>
  <g fill="none" stroke="#000" stroke-width="2.5">
   <path d="m1.8259 8.3544h16.347"/>
   <path d="m12.413 8.1355 3.9159-6.7825"/>
   <path d="m4.9331 8.1355 3.9159-6.7825"/>
  </g>
  <path transform="matrix(.187 0 0 .187 -37.724 2.8935)" d="m262.37 103.44v-26.612-26.612l46.094 26.612-23.047 13.306z" fill-opacity="0" stroke="#000" stroke-width="13.369"/>
  <circle cx="28.37" cy="5.8502" r="1.9912" fill="#000" stroke="#000" stroke-width=".46614"/>
  <g fill="none" stroke="#000">
   <path transform="rotate(240)" d="m-18 25.3a3.3616 3.3616 0 0 1-3.3616 0 3.3616 3.3616 0 0 1-1.6808-2.9112"/>
   <path transform="matrix(.5 -.86603 -.86603 -.5 0 0)" d="m10.387-23.868a3.3616 3.3616 0 0 1-3.3616 0 3.3616 3.3616 0 0 1-1.6808-2.9112"/>
   <path transform="rotate(240)" d="m-16.477 27.341a6.064 6.064 0 0 1-6.064 0 6.064 6.064 0 0 1-3.032-5.2515"/>
   <path transform="matrix(.5 -.86603 -.86603 -.5 0 0)" d="m11.91-21.827a6.064 6.064 0 0 1-6.064 0 6.064 6.064 0 0 1-3.032-5.2515"/>
  </g>
 </g>
</svg>
