<?xml version="1.0" encoding="UTF-8"?>

<svg
    width="38mm"
    height="29.3mm"
    version="1.1"
    viewBox="0 0 38 29.3"
    xmlns="http://www.w3.org/2000/svg">

 <defs>
  <clipPath id="clipPath4029">
   <path class="powerclip" d="m30.57-32.337h36.757v31.982h-36.757zm11.362 8.5961c-1.457 0-2.6299 0.82995-2.6299 1.8609v16.06c0 1.0309 1.1729 1.8609 2.6299 1.8609h19.297c1.457 0 2.6299-0.82995 2.6299-1.8609v-16.06c0-1.0309-1.1729-1.8609-2.6299-1.8609z" fill="none" stroke="#010005" stroke-linecap="round" stroke-linejoin="round" stroke-width="2.2"/>
  </clipPath>
  <clipPath id="clipath_lpe_path-effect4041">
   <path class="powerclip" d="m30.57-32.337h36.757v31.982h-36.757zm11.362 8.5961c-1.457 0-2.6299 0.82995-2.6299 1.8609v16.06c0 1.0309 1.1729 1.8609 2.6299 1.8609h19.297c1.457 0 2.6299-0.82995 2.6299-1.8609v-16.06c0-1.0309-1.1729-1.8609-2.6299-1.8609z" fill="none" stroke="#010005" stroke-linecap="round" stroke-linejoin="round" stroke-width="2.2"/>
  </clipPath>
 </defs>
 <g stroke="#FFF" stroke-linejoin="round">
  <path d="m30.901 10.239v16.06c0 1.0309-1.1729 1.8609-2.6299 1.8609h-19.297c-1.457 0-2.6299-0.82995-2.6299-1.8609v-16.06c0-1.0309 1.1729-1.8609 2.6299-1.8609h13.06" fill="none" stroke-linecap="round" stroke-width="2.2"/>
  <g>
   <circle cx="12.253" cy="14.149" r="1.6499" fill="#FFF" stroke-linecap="round" stroke-width="2.1801"/>
   <path d="m10.069 27.909 6.3859-7.6922 4.0215 4.888 4.7451-9.245 5.2413 10.194-2.1363 1.9848z" fill="#FFF" stroke-width="1.744"/>
   <path transform="translate(-32.958 31.761)" d="m61.227-19.604v11.288c0 1.0309-1.1729 1.8609-2.6299 1.8609h-19.297c-1.457 0-2.6299-0.82995-2.6299-1.8609v-16.06c0-1.0309 1.1729-1.8609 2.6299-1.8609h15.707" clip-path="url(#clipPath4029)" fill="none" stroke-linecap="round" stroke-width="2.2"/>
   <path transform="translate(-35.516 28.957)" d="m61.227-18.864v10.548c0 1.0309-1.1729 1.8609-2.6299 1.8609h-19.297c-1.457 0-2.6299-0.82995-2.6299-1.8609v-16.06c0-1.0309 1.1729-1.8609 2.6299-1.8609h18.321" clip-path="url(#clipath_lpe_path-effect4041)" fill="none" stroke-linecap="round" stroke-width="2.2"/>
  </g>
  <circle cx="30.868" cy="5.7914" r="1.9912" fill="#FFF" stroke-linecap="round" stroke-width=".46614"/>
  <g fill="none" stroke-linecap="round">
   <path transform="rotate(240)" d="m-19.198 27.492a3.3616 3.3616 0 0 1-3.3616 0 3.3616 3.3616 0 0 1-1.6808-2.9112"/>
   <path transform="matrix(.5 -.86603 -.86603 -.5 0 0)" d="m11.687-26.002a3.3616 3.3616 0 0 1-3.3616 0 3.3616 3.3616 0 0 1-1.6808-2.9112"/>
   <path transform="rotate(240)" d="m-17.675 29.534a6.064 6.064 0 0 1-6.064 0 6.064 6.064 0 0 1-3.032-5.2515"/>
   <path transform="matrix(.5 -.86603 -.86603 -.5 0 0)" d="m13.21-23.96a6.064 6.064 0 0 1-6.064 0 6.064 6.064 0 0 1-3.032-5.2516"/>
  </g>
 </g>
</svg>
